<?xml version="1.0" encoding="UTF-8"?>
<svg width="256" height="256" viewBox="0 0 256 256" fill="none" xmlns="http://www.w3.org/2000/svg">
  <defs>
    <linearGradient id="g0" x1="0" y1="0" x2="0" y2="1">
      <stop offset="0%" stop-color="#0EA5E9"/>
      <stop offset="100%" stop-color="#3B82F6"/>
    </linearGradient>
    <linearGradient id="g1" x1="0" y1="0" x2="1" y2="1">
      <stop offset="0%" stop-color="#111827"/>
      <stop offset="100%" stop-color="#1F2937"/>
    </linearGradient>
    <filter id="shadow" x="-20%" y="-20%" width="140%" height="140%">
      <feDropShadow dx="0" dy="4" stdDeviation="8" flood-opacity="0.25"/>
    </filter>
  </defs>

  <!-- Film card background -->
  <rect x="20" y="20" rx="20" ry="20" width="216" height="168" fill="url(#g1)" filter="url(#shadow)"/>

  <!-- Film perforations (left) -->
  <g fill="#0EA5E9" opacity="0.9">
    <rect x="28" y="36" width="10" height="16" rx="2"/>
    <rect x="28" y="64" width="10" height="16" rx="2"/>
    <rect x="28" y="92" width="10" height="16" rx="2"/>
    <rect x="28" y="120" width="10" height="16" rx="2"/>
    <rect x="28" y="148" width="10" height="16" rx="2"/>
  </g>
  <!-- Film perforations (right) -->
  <g fill="#0EA5E9" opacity="0.9">
    <rect x="218" y="36" width="10" height="16" rx="2"/>
    <rect x="218" y="64" width="10" height="16" rx="2"/>
    <rect x="218" y="92" width="10" height="16" rx="2"/>
    <rect x="218" y="120" width="10" height="16" rx="2"/>
    <rect x="218" y="148" width="10" height="16" rx="2"/>
  </g>

  <!-- AV lettering -->
  <g transform="translate(44,42)">
    <path d="M32 88 L48 40 L64 88" stroke="#93C5FD" stroke-width="8" stroke-linecap="round" stroke-linejoin="round" fill="none"/>
    <line x1="37" y1="72" x2="59" y2="72" stroke="#93C5FD" stroke-width="8" stroke-linecap="round"/>
    <path d="M96 40 L112 88 L128 40" stroke="#93C5FD" stroke-width="8" stroke-linecap="round" stroke-linejoin="round" fill="none"/>
  </g>

  <!-- Divider line above the download area -->
  <line x1="36" y1="148" x2="220" y2="148" stroke="#0EA5E9" stroke-opacity="0.35" stroke-width="2"/>

  <!-- Download arrow -->
  <g transform="translate(0,4)">
    <path d="M128 120 v42" stroke="url(#g0)" stroke-width="12" stroke-linecap="round"/>
    <path d="M112 148 L128 164 L144 148" fill="none" stroke="url(#g0)" stroke-width="12" stroke-linecap="round" stroke-linejoin="round"/>
  </g>

  <!-- Download tray -->
  <rect x="72" y="196" width="112" height="24" rx="6" fill="url(#g0)"/>
  <rect x="80" y="200" width="96" height="16" rx="4" fill="#FFFFFF" fill-opacity="0.12"/>

</svg>


